{"title":"Tron Legacy 2010 PPVRIP (2010)","uid":6202754,"size":1577651164,"categoryP":"video","categoryS":"movies","magnet":"?xt=urn:btih:ae894b24506db9dae228d3f88e12f0b18d92d960&amp;dn=Tron+Legacy+2010+PPVRIP+%282010%29&amp;tr=udp%3A%2F%2Ftracker.openbittorrent.com%3A80&amp;tr=udp%3A%2F%2Fopen.demonii.com%3A1337&amp;tr=udp%3A%2F%2Ftracker.coppersurfer.tk%3A6969&amp;tr=udp%3A%2F%2Fexodus.desync.com%3A6969","seeders":0,"leechers":0,"uploader":"IwannaFan2","files":7,"time":1298680765,"description":"Tron Legacy 2010 PPVRIP (2010) &lt;a href=&quot;\nhttp://www.imdb.com/title/tt1104001/&quot; rel=&quot;nofollow&quot; target=&quot;_NEW&quot;&gt;\nhttp://www.imdb.com/title/tt1104001/&lt;/a&gt;\n\n[IMG]http://img232.imageshack.us/img232/739/vlcsnap2011022513h51m36.png[/IMG]\n[IMG]http://img816.imageshack.us/img816/7373/vlcsnap2011022513h50m48.png[/IMG]\n[IMG]http://img571.imageshack.us/img571/4615/vlcsnap2011022513h50m51.png[/IMG]\n[IMG]http://img835.imageshack.us/img835/3414/vlcsnap2011022513h52m16.png[/IMG]\n\nTrailer:\n\nFormat                           : AVI\nFormat/Info                      : Audio Video Interleave\nFile size                        : 1.46 GiB\nDuration                         : 2h 3mn\nOverall bit rate                 : 1 691 Kbps\n\nVideo\nID                               : 0\nFormat                           : MPEG-4 Visual\nFormat profile                   : Simple@L3\nFormat settings, BVOP            : No\nFormat settings, QPel            : No\nFormat settings, GMC             : No warppoints\nFormat settings, Matrix          : Default (H.263)\nCodec ID                         : XVID\nCodec ID/Hint                    : XviD\nDuration                         : 2h 3mn\nBit rate                         : 1 550 Kbps\nWidth                            : 720 pixels\nHeight                           : 480 pixels\nDisplay aspect ratio             : 1.500\nFrame rate                       : 29.970 fps\nOriginal frame rate              : 29.000 fps\nStandard                         : NTSC\nResolution                       : 24 bits\nColorimetry                      : 4:2:0\nScan type                        : Progressive\nBits/(Pixel*Frame)               : 0.150\nStream size                      : 1.34 GiB (92%)\nWriting library                  : XviD 1.2.1 (UTC 2008-12-04)\n\nAudio\nID                               : 1\nFormat                           : MPEG Audio\nFormat version                   : Version 1\nFormat profile                   : Layer 3\nFormat_Settings_Mode             : Joint stereo / MS Stereo\nCodec ID                         : 55\nCodec ID/Hint                    : MP3\nDuration                         : 2h 3mn\nBit rate mode                    : Constant\nBit rate                         : 128 Kbps\nChannel(s)                       : 2 channels\nSampling rate                    : 44.1 KHz\nResolution                       : 16 bits\nStream size                      : 113 MiB (8%)\nAlignment                        : Aligned on interleaves\nInterleave, duration             : 26 ms (0.78 video frame)\nWriting library                  : LAME3.98.2\n\nRelease notes...\n\nAnother quality release from IFLIX\nMore to come very soon!\n\nVideo source: Ours\nAudio source: Ours\n\nGreetings to all other groups out there. You all do awesome work and we greatly appreciate \n\nit.\nIFLIX :-)\n\n\n","torrent":{"xt":"urn:btih:ae894b24506db9dae228d3f88e12f0b18d92d960","amp;dn":"Tron+Legacy+2010+PPVRIP+%282010%29","amp;tr":["udp%3A%2F%2Ftracker.openbittorrent.com%3A80","udp%3A%2F%2Fopen.demonii.com%3A1337","udp%3A%2F%2Ftracker.coppersurfer.tk%3A6969","udp%3A%2F%2Fexodus.desync.com%3A6969"],"infoHash":"ae894b24506db9dae228d3f88e12f0b18d92d960","infoHashBuffer":{"type":"Buffer","data":[174,137,75,36,80,109,185,218,226,40,211,248,142,18,240,177,141,146,217,96]},"announce":[],"urlList":[]}}